<svg width="256" height="255.00000000000003" xmlns="http://www.w3.org/2000/svg">
 <!-- Created with Method Draw - http://github.com/duopixel/Method-Draw/ -->
 <defs>
  <filter id="svg_7_blur" x="-50%" y="-50%" width="200%" height="200%">
   <feGaussianBlur stdDeviation="0"/>
  </filter>
 </defs>
 <g>
  <title>background</title>
  <rect x="0" y="0" width="256" height="256" id="canvas_background" fill="#ffffff" opacity="0.0"/>
 </g>
 <g>
  <title>Layer 1</title>
  <ellipse fill="#000000" stroke-width="0" stroke-opacity="null" cx="125.5" cy="62.000002" id="svg_1" rx="56.5" ry="56.000001" stroke="#000" opacity="0.5"/>
  <ellipse fill="#000000" stroke-width="0" stroke-opacity="null" cx="192.5" cy="116.000002" id="svg_2" rx="56.5" ry="56.000001" stroke="#000" opacity="0.5"/>
  <ellipse fill="#000000" stroke-width="0" stroke-opacity="null" cx="61.5" cy="118.000002" id="svg_3" rx="56.5" ry="56.000001" stroke="#000" opacity="0.5"/>
  <ellipse fill="#000000" stroke-width="0" stroke-opacity="null" cx="89.5" cy="192.000002" id="svg_4" rx="56.5" ry="56.000001" stroke="#000" opacity="0.5"/>
  <ellipse fill="#000000" stroke-width="0" stroke-opacity="null" cx="175.5" cy="193.000002" id="svg_5" rx="56.5" ry="56.000001" stroke="#000" opacity="0.5"/>
  <path stroke="#000" fill="#ffffff" stroke-width="0" stroke-opacity="null" d="m62.17854,100.444323l0,0c0,-8.027068 7.028196,-14.534283 15.697913,-14.534283l7.135423,0l0,0l34.249999,0l64.218729,0c4.163353,0 8.156179,1.531282 11.100106,4.256988c2.943927,2.725706 4.597807,6.42257 4.597807,10.277295l0,36.335699l0,0l0,21.801425l0,0c0,8.027068 -6.297292,14.872638 -14.967018,14.872638l-58.416423,-2.74428c79.339776,-9.28572 -39.142723,18.8705 -55.471096,30.667926l14.687895,-28.262l-7.135413,0c-8.669717,0 -15.697913,-6.507215 -15.697913,-14.534283l0,0l0,-21.801425l0,0l-0.00001,-36.335699z" id="svg_7" filter="url(#svg_7_blur)"/>
 </g>
</svg>